<?xml version="1.0" encoding="iso-8859-1"?>
<!-- Generator: Adobe Illustrator 19.0.0, SVG Export Plug-In . SVG Version: 6.00 Build 0)  -->
<svg version="1.1" id="Capa_1" xmlns="http://www.w3.org/2000/svg" xmlns:xlink="http://www.w3.org/1999/xlink" x="0px" y="0px"
	 viewBox="0 0 512 512" style="enable-background:new 0 0 512 512;" xml:space="preserve">
<path style="fill:#FF8C2E;" d="M256,0C115.3,0,0,115.3,0,256s115.3,256,256,256s256-115.3,256-256S396.7,0,256,0z"/>
<path style="fill:#E26B1B;" d="M512,256c0,140.7-115.3,256-256,256V0C396.7,0,512,115.3,512,256z"/>
<path style="fill:#FEDBAB;" d="M256,31C131.8,31,31,131.8,31,256s100.8,225,225,225s225-100.8,225-225S380.2,31,256,31z"/>
<path style="fill:#FEC478;" d="M481,256c0,124.2-100.8,225-225,225V31C380.2,31,481,131.8,481,256z"/>
<path style="fill:#FEA832;" d="M419.801,187.301c2.699-26.1-6.301-52.202-25.201-71.1C376,97.599,349.6,88.6,323.8,91.3
	c-16.5-20.4-41.4-32.401-67.8-32.401S204.699,70.901,188.2,91.3c-26.1-2.701-52.2,6.299-70.8,24.901
	c-18.9,18.898-27.9,45-25.201,71.1c-20.4,16.199-32.399,41.1-32.399,67.5c0,26.699,11.999,51.599,32.399,67.798
	C89.5,348.701,98.5,374.801,117.4,393.701c18.6,18.6,44.7,27.599,70.8,24.899c16.5,20.4,41.4,32.401,67.8,32.401
	S307.301,439,323.8,418.6c26.1,2.701,52.2-6.299,70.8-24.899c18.9-18.9,27.9-45,25.201-71.102
	c20.4-16.199,32.399-41.1,32.399-67.798C452.199,228.401,440.2,203.5,419.801,187.301z"/>
<path style="fill:#FE9923;" d="M452.199,254.801c0,26.699-11.999,51.599-32.399,67.798c2.699,26.102-6.301,52.202-25.201,71.102
	c-18.6,18.6-44.7,27.599-70.8,24.899C307.301,438.999,282.4,451,256,451V58.9c26.4,0,51.301,12.001,67.8,32.401
	c25.8-2.701,52.2,6.299,70.8,24.901c18.9,18.898,27.9,45,25.201,71.1C440.2,203.5,452.199,228.401,452.199,254.801z"/>
<g>
	<polygon style="fill:#FEC478;" points="432.265,346.381 278.192,280.346 289.999,252.777 444.071,318.813 	"/>
	<polygon style="fill:#FEC478;" points="319.354,452.655 253.935,289.12 281.796,277.987 347.216,441.522 	"/>
</g>
<g>
	<polygon style="fill:#FEDBAB;" points="190.565,446.693 162.997,434.887 230.38,277.665 257.948,289.472 	"/>
	<polygon style="fill:#FEDBAB;" points="80.102,341.884 68.969,314.022 222.353,252.66 233.485,280.521 	"/>
	<polygon style="fill:#FEDBAB;" points="222.748,257.436 65.219,189.921 77.025,162.353 234.555,229.867 	"/>
	<polygon style="fill:#FEDBAB;" points="230.922,233.705 164.491,67.606 192.353,56.474 258.783,222.572 	"/>
</g>
<g>
	<polygon style="fill:#FEC478;" points="280.932,234.042 253.363,222.235 322.65,60.297 350.219,72.104 	"/>
	<polygon style="fill:#FEC478;" points="289.252,257.436 277.445,229.867 433.012,163.188 444.818,190.756 	"/>
</g>
<path style="fill:#FEDBAB;" d="M256,211c-24.901,0-45,20.099-45,45s20.099,45,45,45s45-20.099,45-45S280.901,211,256,211z"/>
<path style="fill:#FEC478;" d="M301,256c0,24.901-20.099,45-45,45v-90C280.901,211,301,231.099,301,256z"/>
<g>
</g>
<g>
</g>
<g>
</g>
<g>
</g>
<g>
</g>
<g>
</g>
<g>
</g>
<g>
</g>
<g>
</g>
<g>
</g>
<g>
</g>
<g>
</g>
<g>
</g>
<g>
</g>
<g>
</g>
</svg>
